<svg viewBox="0 0 60 60" fill="none" xmlns="http://www.w3.org/2000/svg">
    <path
        d="M48.2333 24.8784L42.4 17.8784C41.5182 16.8204 41.075 16.291 40.5347 15.9107C40.0557 15.5737 39.521 15.3238 38.9555 15.1717C38.3175 15 37.6307 15 36.2535 15H18.0005C15.2002 15 13.7991 15 12.7295 15.545C11.7887 16.0243 11.0243 16.7887 10.545 17.7295C10 18.7991 10 20.2002 10 23.0005V37.0005C10 39.8008 10 41.2002 10.545 42.2697C11.0243 43.2105 11.7887 43.9762 12.7295 44.4555C13.798 45 15.1975 45 17.9923 45H36.2535C37.6307 45 38.3175 44.9995 38.9555 44.828C39.521 44.6758 40.0557 44.4255 40.5347 44.0885C41.075 43.7083 41.5182 43.1803 42.4 42.122L48.2333 35.122C49.7515 33.3 50.509 32.389 50.7993 31.372C51.055 30.4755 51.055 29.5238 50.7993 28.6273C50.509 27.6103 49.7515 26.7003 48.2333 24.8784Z"
        stroke="#c2c6dc" stroke-width="5" stroke-linecap="round" stroke-linejoin="round" />
</svg>